# xmcd CD database file
# Copyright (C) 1997 Ti Kan
# 
# Track frame offsets:
#     150
#     10845
#     21690
#     32842
#     42872
#     54390
#     63610
#     75467
#     86675
#     98355
#     109702
#     121447
#     133827
#     144585
#     158785
#     169330
# 
# Disc length: 2433 seconds
# 
# Revision: 1
# Processed by: cddbd v1.4b41PL1 Copyright (c) Steve Scherf et al.
# Submitted via: DiscPlay 4.0.4
# 
DISCID=d4097f10
DTITLE=Pat Boone - A Date With Pat Boone
DYEAR=1900
DGENRE=
TTITLE0=Blue Suede Shoes
TTITLE1=Blueberry Hill
TTITLE2=Tutti Frutti
TTITLE3=Long Tall Sally
TTITLE4=Personality
TTITLE5=At My Front Door
TTITLE6=Running Bear
TTITLE7=Gee Whittakers!
TTITLE8=Tammy
TTITLE9=Three Coins In The Fountain
TTITLE10=Secret Love
TTITLE11=Ebb Tide
TTITLE12=Cherry Pink And Apple Blossom White
TTITLE13=The Exodus Song
TTITLE14=No Arms Can Ever Hold You
TTITLE15=Friendly Persuasion
EXTD=
EXTT0=
EXTT1=
EXTT2=
EXTT3=
EXTT4=
EXTT5=
EXTT6=
EXTT7=
EXTT8=
EXTT9=
EXTT10=
EXTT11=
EXTT12=
EXTT13=
EXTT14=
EXTT15=
PLAYORDER=
